<?xml version="1.0" encoding="UTF-8"?>
<svg id="Ebene_2" data-name="Ebene 2" xmlns="http://www.w3.org/2000/svg" viewBox="0 0 388.19 291.12">
  <defs>
    <style>
      .cls-1 {
        fill: none;
        stroke: #000;
        stroke-miterlimit: 10;
        stroke-width: 15px;
      }
    </style>
  </defs>
  <g id="Ebene_2-2" data-name="Ebene 2">
    <path class="cls-1" d="m191.35,7.53c19.49-.02,48.85-1.47,48.78,18.22v257.79h25.46"/>
    <line class="cls-1" x1="268.43" y1="126.7" x2="237.92" y2="126.7"/>
    <line class="cls-1" x1="268.43" y1="166.46" x2="237.92" y2="166.46"/>
    <path class="cls-1" d="m275.62,98.32h84.48c13.78,0,20.6,7.12,20.6,20.21v143.35c0,14.68-5.37,21.74-17.26,21.74h-87.81V47.52c0-41.9-44.87-39.65-84.27-40.02"/>
    <line class="cls-1" x1="191.35" y1="283.62" x2="269.14" y2="283.62"/>
    <path class="cls-1" d="m196.84,7.53c-19.49-.02-48.85-1.47-48.78,18.22v257.79s-25.51.07-25.51.07"/>
    <line class="cls-1" x1="119.76" y1="126.7" x2="150.27" y2="126.7"/>
    <line class="cls-1" x1="119.76" y1="166.46" x2="150.27" y2="166.46"/>
    <path class="cls-1" d="m112.58,98.32H28.1c-13.78,0-20.6,7.12-20.6,20.21v143.35c0,14.68,5.37,21.74,17.26,21.74h87.81s0-236.1,0-236.1c0-41.9,44.87-39.65,84.27-40.02"/>
    <line class="cls-1" x1="196.84" y1="283.62" x2="118.1" y2="283.62"/>
  </g>
</svg>