<?xml version="1.0" encoding="UTF-8"?>
<svg id="Ebene_2" data-name="Ebene 2" xmlns="http://www.w3.org/2000/svg" viewBox="0 0 281.4 206.94">
  <defs>
    <style>
      .cls-1 {
        fill: none;
        stroke: #000;
        stroke-miterlimit: 10;
        stroke-width: 18px;
      }
    </style>
  </defs>
  <g id="Ebene_2-2" data-name="Ebene 2">
    <path class="cls-1" d="m138.76,9.02c13.76-.02,34.48-1.01,34.43,12.47v176.4h16.99"/>
    <line class="cls-1" x1="193.17" y1="90.57" x2="171.63" y2="90.57"/>
    <line class="cls-1" x1="193.17" y1="117.77" x2="171.63" y2="117.77"/>
    <path class="cls-1" d="m198.24,71.15h59.63c9.73,0,14.54,4.87,14.54,13.83v98.09c0,10.05-3.79,14.88-12.18,14.88h-61.98V36.38c0-28.67-31.67-27.13-59.48-27.38"/>
    <line class="cls-1" x1="138.76" y1="197.94" x2="182.4" y2="197.94"/>
    <path class="cls-1" d="m142.64,9.02c-13.76-.02-34.48-1.01-34.43,12.47v176.4h-16.99"/>
    <line class="cls-1" x1="88.24" y1="90.57" x2="109.77" y2="90.57"/>
    <line class="cls-1" x1="88.24" y1="117.77" x2="109.77" y2="117.77"/>
    <path class="cls-1" d="m83.16,71.15H23.54c-9.73,0-14.54,4.87-14.54,13.83v98.09c0,10.05,3.79,14.88,12.18,14.88h61.98s0-161.55,0-161.55c0-28.67,31.67-27.13,59.48-27.38"/>
    <line class="cls-1" x1="142.64" y1="197.94" x2="99" y2="197.94"/>
  </g>
</svg>