<?xml version="1.0" encoding="UTF-8"?>
<svg id="Ebene_2" data-name="Ebene 2" xmlns="http://www.w3.org/2000/svg" viewBox="0 0 355.33 295.41">
  <defs>
    <style>
      .cls-1 {
        fill: none;
        stroke: #000;
        stroke-miterlimit: 10;
        stroke-width: 15px;
      }
    </style>
  </defs>
  <g id="Ebene_2-2" data-name="Ebene 2">
    <polyline class="cls-1" points="219.64 91.78 219.64 287.84 242.86 287.84"/>
    <path class="cls-1" d="m176.07,7.54c17.41-.03,43.64-1.76,43.57,21.81v62.43"/>
    <line class="cls-1" x1="245.45" y1="138.28" x2="217.63" y2="138.28"/>
    <line class="cls-1" x1="245.45" y1="176.2" x2="217.63" y2="176.2"/>
    <path class="cls-1" d="m252.01,91.78v-36.38c0-50.11-40.44-47.42-75.94-47.86"/>
    <path class="cls-1" d="m252.01,111.22h77.04c12.57,0,18.78,6.79,18.78,19.27v136.69c0,14-4.89,20.73-15.74,20.73h-80.08V91.78"/>
    <line class="cls-1" x1="175.16" y1="287.91" x2="246.1" y2="287.91"/>
    <polyline class="cls-1" points="135.69 91.78 135.69 287.84 112.43 287.91"/>
    <path class="cls-1" d="m180.17,7.54c-17.78-.03-44.55-1.76-44.48,21.81v62.43"/>
    <line class="cls-1" x1="109.88" y1="138.28" x2="137.7" y2="138.28"/>
    <line class="cls-1" x1="109.88" y1="176.2" x2="137.7" y2="176.2"/>
    <path class="cls-1" d="m103.32,91.78v-36.39c0-50.13,40.92-47.44,76.85-47.88"/>
    <path class="cls-1" d="m103.32,111.22H26.28c-12.57,0-18.78,6.79-18.78,19.27v136.69c0,14,4.89,20.73,15.74,20.73h80.08V91.78"/>
    <line class="cls-1" x1="180.17" y1="287.91" x2="108.36" y2="287.91"/>
  </g>
</svg>