<?xml version="1.0" encoding="UTF-8"?>
<svg id="Ebene_2" data-name="Ebene 2" xmlns="http://www.w3.org/2000/svg" viewBox="0 0 293.11 298.14">
  <defs>
    <style>
      .cls-1 {
        stroke-width: 0px;
      }

      .cls-2 {
        fill: none;
        stroke: #000;
        stroke-miterlimit: 10;
        stroke-width: 9px;
      }
    </style>
  </defs>
  <g id="Ebene_2-2" data-name="Ebene 2">
    <line class="cls-2" x1="289.85" y1="295.04" x2="200.25" y2="200.62"/>
    <path class="cls-1" d="m120.97,9c29.91,0,58.02,11.65,79.17,32.79,21.15,21.15,32.79,49.26,32.79,79.17s-11.65,58.02-32.79,79.17c-21.15,21.15-49.26,32.79-79.17,32.79s-58.02-11.65-79.17-32.79c-21.15-21.15-32.79-49.26-32.79-79.17s11.65-58.02,32.79-79.17C62.94,20.65,91.06,9,120.97,9m0-9C54.16,0,0,54.16,0,120.97s54.16,120.97,120.97,120.97,120.97-54.16,120.97-120.97S187.77,0,120.97,0h0Z"/>
  </g>
</svg>